<mxfile host="app.diagrams.net" agent="Mozilla/5.0 (X11; Linux x86_64) AppleWebKit/537.36 (KHTML, like Gecko) Chrome/126.0.0.0 Safari/537.36" version="24.8.4">
  <diagram name="Page-1" id="cp2lDJKNXeXYgKawgJn0">
    <mxGraphModel dx="1257" dy="650" grid="1" gridSize="10" guides="1" tooltips="1" connect="1" arrows="1" fold="1" page="1" pageScale="1" pageWidth="850" pageHeight="1100" math="0" shadow="0">
      <root>
        <mxCell id="0" />
        <mxCell id="1" parent="0" />
        <mxCell id="L0HTs1hgYTQf2p8KzPn4-115" value="" style="rounded=1;whiteSpace=wrap;html=1;fillColor=none;strokeColor=#d79b00;arcSize=3;" vertex="1" parent="1">
          <mxGeometry x="620" y="410" width="480" height="250" as="geometry" />
        </mxCell>
        <mxCell id="L0HTs1hgYTQf2p8KzPn4-127" value="" style="rounded=1;whiteSpace=wrap;html=1;fillColor=none;strokeColor=#b85450;arcSize=3;" vertex="1" parent="1">
          <mxGeometry x="610" y="390" width="500" height="390" as="geometry" />
        </mxCell>
        <mxCell id="L0HTs1hgYTQf2p8KzPn4-85" style="edgeStyle=orthogonalEdgeStyle;rounded=0;orthogonalLoop=1;jettySize=auto;html=1;exitX=1;exitY=0.5;exitDx=0;exitDy=0;entryX=0;entryY=0.5;entryDx=0;entryDy=0;" edge="1" source="L0HTs1hgYTQf2p8KzPn4-86" target="L0HTs1hgYTQf2p8KzPn4-88" parent="1">
          <mxGeometry relative="1" as="geometry" />
        </mxCell>
        <mxCell id="L0HTs1hgYTQf2p8KzPn4-86" value="Channel" style="whiteSpace=wrap;html=1;aspect=fixed;" vertex="1" parent="1">
          <mxGeometry x="400" y="440" width="80" height="80" as="geometry" />
        </mxCell>
        <mxCell id="L0HTs1hgYTQf2p8KzPn4-87" style="edgeStyle=orthogonalEdgeStyle;rounded=0;orthogonalLoop=1;jettySize=auto;html=1;exitX=1;exitY=0.5;exitDx=0;exitDy=0;entryX=0;entryY=0.5;entryDx=0;entryDy=0;" edge="1" source="L0HTs1hgYTQf2p8KzPn4-88" target="L0HTs1hgYTQf2p8KzPn4-93" parent="1">
          <mxGeometry relative="1" as="geometry" />
        </mxCell>
        <mxCell id="L0HTs1hgYTQf2p8KzPn4-88" value="Twilio" style="whiteSpace=wrap;html=1;aspect=fixed;" vertex="1" parent="1">
          <mxGeometry x="520" y="440" width="80" height="80" as="geometry" />
        </mxCell>
        <mxCell id="L0HTs1hgYTQf2p8KzPn4-89" style="edgeStyle=orthogonalEdgeStyle;rounded=0;orthogonalLoop=1;jettySize=auto;html=1;exitX=1;exitY=0.5;exitDx=0;exitDy=0;entryX=0;entryY=0.5;entryDx=0;entryDy=0;" edge="1" target="L0HTs1hgYTQf2p8KzPn4-91" parent="1">
          <mxGeometry relative="1" as="geometry">
            <mxPoint x="839.9999999999998" y="480" as="sourcePoint" />
          </mxGeometry>
        </mxCell>
        <mxCell id="L0HTs1hgYTQf2p8KzPn4-91" value="Executor" style="whiteSpace=wrap;html=1;aspect=fixed;" vertex="1" parent="1">
          <mxGeometry x="880" y="440" width="80" height="80" as="geometry" />
        </mxCell>
        <mxCell id="L0HTs1hgYTQf2p8KzPn4-93" value="Message Listener" style="whiteSpace=wrap;html=1;aspect=fixed;" vertex="1" parent="1">
          <mxGeometry x="640" y="440" width="80" height="80" as="geometry" />
        </mxCell>
        <mxCell id="L0HTs1hgYTQf2p8KzPn4-94" value="Gemini&lt;br&gt;(1.5 Flash)&lt;div&gt;Function Calling&lt;/div&gt;" style="rounded=0;whiteSpace=wrap;html=1;" vertex="1" parent="1">
          <mxGeometry x="640" y="320" width="200" height="60" as="geometry" />
        </mxCell>
        <mxCell id="L0HTs1hgYTQf2p8KzPn4-95" style="edgeStyle=orthogonalEdgeStyle;rounded=0;orthogonalLoop=1;jettySize=auto;html=1;exitX=1;exitY=0.5;exitDx=0;exitDy=0;entryX=0;entryY=0.5;entryDx=0;entryDy=0;" edge="1" source="L0HTs1hgYTQf2p8KzPn4-96" target="L0HTs1hgYTQf2p8KzPn4-100" parent="1">
          <mxGeometry relative="1" as="geometry" />
        </mxCell>
        <mxCell id="L0HTs1hgYTQf2p8KzPn4-96" value="Message Sender" style="whiteSpace=wrap;html=1;aspect=fixed;" vertex="1" parent="1">
          <mxGeometry x="1000" y="440" width="80" height="80" as="geometry" />
        </mxCell>
        <mxCell id="L0HTs1hgYTQf2p8KzPn4-97" value="Gemini&lt;br&gt;(1.5 Flash)&lt;div&gt;Content Generation&lt;/div&gt;" style="rounded=0;whiteSpace=wrap;html=1;" vertex="1" parent="1">
          <mxGeometry x="880" y="320" width="200" height="60" as="geometry" />
        </mxCell>
        <mxCell id="L0HTs1hgYTQf2p8KzPn4-98" value="" style="endArrow=classic;html=1;rounded=0;exitX=0.5;exitY=0;exitDx=0;exitDy=0;" edge="1" source="L0HTs1hgYTQf2p8KzPn4-91" parent="1">
          <mxGeometry width="50" height="50" relative="1" as="geometry">
            <mxPoint x="870" y="420" as="sourcePoint" />
            <mxPoint x="920" y="380" as="targetPoint" />
          </mxGeometry>
        </mxCell>
        <mxCell id="L0HTs1hgYTQf2p8KzPn4-99" style="edgeStyle=orthogonalEdgeStyle;rounded=0;orthogonalLoop=1;jettySize=auto;html=1;exitX=1;exitY=0.5;exitDx=0;exitDy=0;entryX=0;entryY=0.5;entryDx=0;entryDy=0;" edge="1" source="L0HTs1hgYTQf2p8KzPn4-100" target="L0HTs1hgYTQf2p8KzPn4-104" parent="1">
          <mxGeometry relative="1" as="geometry" />
        </mxCell>
        <mxCell id="L0HTs1hgYTQf2p8KzPn4-100" value="Twilio" style="whiteSpace=wrap;html=1;aspect=fixed;" vertex="1" parent="1">
          <mxGeometry x="1120" y="440" width="80" height="80" as="geometry" />
        </mxCell>
        <mxCell id="L0HTs1hgYTQf2p8KzPn4-101" value="" style="endArrow=classic;html=1;rounded=0;entryX=0.5;entryY=0;entryDx=0;entryDy=0;exitX=0.799;exitY=1.005;exitDx=0;exitDy=0;exitPerimeter=0;" edge="1" source="L0HTs1hgYTQf2p8KzPn4-97" target="L0HTs1hgYTQf2p8KzPn4-96" parent="1">
          <mxGeometry width="50" height="50" relative="1" as="geometry">
            <mxPoint x="1020" y="370" as="sourcePoint" />
            <mxPoint x="1020" y="440" as="targetPoint" />
          </mxGeometry>
        </mxCell>
        <mxCell id="L0HTs1hgYTQf2p8KzPn4-102" value="" style="endArrow=classic;html=1;rounded=0;exitX=0.5;exitY=0;exitDx=0;exitDy=0;entryX=0.2;entryY=1;entryDx=0;entryDy=0;entryPerimeter=0;" edge="1" source="L0HTs1hgYTQf2p8KzPn4-93" target="L0HTs1hgYTQf2p8KzPn4-94" parent="1">
          <mxGeometry width="50" height="50" relative="1" as="geometry">
            <mxPoint x="700" y="430" as="sourcePoint" />
            <mxPoint x="750" y="380" as="targetPoint" />
          </mxGeometry>
        </mxCell>
        <mxCell id="L0HTs1hgYTQf2p8KzPn4-103" value="" style="endArrow=classic;html=1;rounded=0;exitX=0.802;exitY=1.02;exitDx=0;exitDy=0;exitPerimeter=0;entryX=0.5;entryY=0;entryDx=0;entryDy=0;" edge="1" source="L0HTs1hgYTQf2p8KzPn4-94" parent="1">
          <mxGeometry width="50" height="50" relative="1" as="geometry">
            <mxPoint x="830" y="420" as="sourcePoint" />
            <mxPoint x="800" y="440" as="targetPoint" />
          </mxGeometry>
        </mxCell>
        <mxCell id="L0HTs1hgYTQf2p8KzPn4-104" value="Channel" style="whiteSpace=wrap;html=1;aspect=fixed;" vertex="1" parent="1">
          <mxGeometry x="1240" y="440" width="80" height="80" as="geometry" />
        </mxCell>
        <mxCell id="L0HTs1hgYTQf2p8KzPn4-154" style="edgeStyle=orthogonalEdgeStyle;rounded=0;orthogonalLoop=1;jettySize=auto;html=1;exitX=1;exitY=0.5;exitDx=0;exitDy=0;entryX=0;entryY=0.5;entryDx=0;entryDy=0;" edge="1" parent="1" source="L0HTs1hgYTQf2p8KzPn4-105" target="L0HTs1hgYTQf2p8KzPn4-110">
          <mxGeometry relative="1" as="geometry" />
        </mxCell>
        <mxCell id="L0HTs1hgYTQf2p8KzPn4-105" value="Internal APIs" style="rounded=0;whiteSpace=wrap;html=1;" vertex="1" parent="1">
          <mxGeometry x="640" y="550" width="80" height="80" as="geometry" />
        </mxCell>
        <mxCell id="L0HTs1hgYTQf2p8KzPn4-110" value="External APIs" style="rounded=0;whiteSpace=wrap;html=1;" vertex="1" parent="1">
          <mxGeometry x="1120" y="550" width="240" height="80" as="geometry" />
        </mxCell>
        <mxCell id="L0HTs1hgYTQf2p8KzPn4-118" value="DynamoDB" style="shape=cylinder3;whiteSpace=wrap;html=1;boundedLbl=1;backgroundOutline=1;size=15;" vertex="1" parent="1">
          <mxGeometry x="640" y="680" width="80" height="80" as="geometry" />
        </mxCell>
        <mxCell id="L0HTs1hgYTQf2p8KzPn4-119" value="S3" style="shape=cylinder3;whiteSpace=wrap;html=1;boundedLbl=1;backgroundOutline=1;size=9.217391304347984;" vertex="1" parent="1">
          <mxGeometry x="760" y="680" width="40" height="80" as="geometry" />
        </mxCell>
        <mxCell id="L0HTs1hgYTQf2p8KzPn4-124" value="" style="endArrow=classic;startArrow=classic;html=1;rounded=0;entryX=0.5;entryY=1;entryDx=0;entryDy=0;" edge="1" parent="1" source="L0HTs1hgYTQf2p8KzPn4-118" target="L0HTs1hgYTQf2p8KzPn4-105">
          <mxGeometry width="50" height="50" relative="1" as="geometry">
            <mxPoint x="680" y="699.2893218813452" as="sourcePoint" />
            <mxPoint x="680" y="649.2893218813452" as="targetPoint" />
          </mxGeometry>
        </mxCell>
        <mxCell id="L0HTs1hgYTQf2p8KzPn4-92" value="&lt;span style=&quot;color: rgb(255, 128, 0);&quot;&gt;Flask&amp;nbsp;&lt;/span&gt;&lt;font color=&quot;#ff8000&quot;&gt;Python Backend&lt;/font&gt;" style="text;html=1;align=center;verticalAlign=middle;whiteSpace=wrap;rounded=0;" vertex="1" parent="1">
          <mxGeometry x="740" y="410" width="210" height="30" as="geometry" />
        </mxCell>
        <mxCell id="L0HTs1hgYTQf2p8KzPn4-130" value="&lt;font color=&quot;#ff6666&quot;&gt;AWS&lt;/font&gt;" style="text;html=1;align=center;verticalAlign=middle;whiteSpace=wrap;rounded=0;" vertex="1" parent="1">
          <mxGeometry x="750" y="750" width="210" height="30" as="geometry" />
        </mxCell>
        <mxCell id="L0HTs1hgYTQf2p8KzPn4-135" value="" style="endArrow=classic;startArrow=classic;html=1;rounded=0;exitX=0.5;exitY=0;exitDx=0;exitDy=0;exitPerimeter=0;entryX=0.208;entryY=0.8;entryDx=0;entryDy=0;entryPerimeter=0;" edge="1" parent="1" source="L0HTs1hgYTQf2p8KzPn4-119" target="L0HTs1hgYTQf2p8KzPn4-115">
          <mxGeometry width="50" height="50" relative="1" as="geometry">
            <mxPoint x="790" y="640" as="sourcePoint" />
            <mxPoint x="840" y="590" as="targetPoint" />
            <Array as="points">
              <mxPoint x="780" y="610" />
            </Array>
          </mxGeometry>
        </mxCell>
        <mxCell id="L0HTs1hgYTQf2p8KzPn4-142" style="edgeStyle=orthogonalEdgeStyle;rounded=0;orthogonalLoop=1;jettySize=auto;html=1;exitX=0;exitY=0.5;exitDx=0;exitDy=0;entryX=0.5;entryY=1;entryDx=0;entryDy=0;" edge="1" parent="1" source="L0HTs1hgYTQf2p8KzPn4-140" target="L0HTs1hgYTQf2p8KzPn4-94">
          <mxGeometry relative="1" as="geometry" />
        </mxCell>
        <mxCell id="L0HTs1hgYTQf2p8KzPn4-140" value="Function&amp;nbsp; Schema Declaration" style="rounded=0;whiteSpace=wrap;html=1;" vertex="1" parent="1">
          <mxGeometry x="760" y="500" width="90" height="50" as="geometry" />
        </mxCell>
        <mxCell id="L0HTs1hgYTQf2p8KzPn4-143" value="Action Parser" style="rounded=0;whiteSpace=wrap;html=1;" vertex="1" parent="1">
          <mxGeometry x="760" y="440" width="90" height="50" as="geometry" />
        </mxCell>
        <mxCell id="L0HTs1hgYTQf2p8KzPn4-152" value="" style="endArrow=classic;startArrow=classic;html=1;rounded=0;exitX=0.6;exitY=0.333;exitDx=0;exitDy=0;exitPerimeter=0;entryX=1;entryY=0.25;entryDx=0;entryDy=0;" edge="1" parent="1" source="L0HTs1hgYTQf2p8KzPn4-127" target="L0HTs1hgYTQf2p8KzPn4-105">
          <mxGeometry width="50" height="50" relative="1" as="geometry">
            <mxPoint x="910" y="600" as="sourcePoint" />
            <mxPoint x="960" y="550" as="targetPoint" />
            <Array as="points">
              <mxPoint x="910" y="570" />
            </Array>
          </mxGeometry>
        </mxCell>
        <mxCell id="L0HTs1hgYTQf2p8KzPn4-153" value="" style="endArrow=classic;startArrow=classic;html=1;rounded=0;exitX=0.64;exitY=0.333;exitDx=0;exitDy=0;exitPerimeter=0;entryX=0;entryY=0.25;entryDx=0;entryDy=0;" edge="1" parent="1" source="L0HTs1hgYTQf2p8KzPn4-127" target="L0HTs1hgYTQf2p8KzPn4-110">
          <mxGeometry width="50" height="50" relative="1" as="geometry">
            <mxPoint x="910" y="600" as="sourcePoint" />
            <mxPoint x="960" y="550" as="targetPoint" />
            <Array as="points">
              <mxPoint x="930" y="570" />
            </Array>
          </mxGeometry>
        </mxCell>
      </root>
    </mxGraphModel>
  </diagram>
</mxfile>
